<?xml version="1.0" encoding="UTF-8" standalone="no"?>
<svg
   xmlns:dc="http://purl.org/dc/elements/1.1/"
   xmlns:cc="http://creativecommons.org/ns#"
   xmlns:rdf="http://www.w3.org/1999/02/22-rdf-syntax-ns#"
   xmlns:svg="http://www.w3.org/2000/svg"
   xmlns="http://www.w3.org/2000/svg"
   id="svg40"
   version="1.1"
   style="overflow:visible"
   viewBox="-240 -126 480 252"
   height="1008px"
   width="1920px">
  <metadata
     id="metadata46">
    <rdf:RDF>
      <cc:Work
         rdf:about="">
        <dc:format>image/svg+xml</dc:format>
        <dc:type
           rdf:resource="http://purl.org/dc/dcmitype/StillImage" />
      </cc:Work>
    </rdf:RDF>
  </metadata>
  <defs
     id="defs44" />
  <rect
     id="rect2"
     fill-opacity="0"
     fill="rgb(0,0,0)"
     height="252"
     width="480"
     y="-126"
     x="-240" />
  <svg
     id="svg38"
     version="1.1"
     y="-250"
     x="-250"
     viewBox="-250 -250 500 500"
     height="500"
     width="500"
     style="overflow:visible">
    <g
       style="fill:#ffffff;stroke-linejoin:round"
       id="g36">
      <path
         style="fill:#444444;fill-opacity:1;stroke:none;stroke-linecap:butt;stroke-linejoin:round"
         id="path4"
         d="m -1.155,-71.687 v 64.4385 h -70.357 v 6.06802 h 70.357 v 84.762999 h 6.069699 v -84.763 h 78.883 v -6.06802 h -78.883 v -64.438501 h -6.0697 z" />
      <path
         style="fill:#80d6fe;fill-opacity:1;stroke:#444444;stroke-width:4;stroke-linecap:butt;stroke-linejoin:miter;stroke-opacity:1"
         id="path6"
         d="m 32.507999,-6.755 a 30.6264,30.617299 0 0 1 -30.6264,30.617299 30.6264,30.617299 0 0 1 -30.6264,-30.6173 30.6264,30.617299 0 0 1 30.6264,-30.6173 30.6264,30.617299 0 0 1 30.6264,30.617299 z" />
      <path
         style="fill:none;stroke:#444444;stroke-width:4;stroke-linecap:butt;stroke-linejoin:miter;stroke-opacity:1"
         id="path8"
         d="m 15.154999,-6.755 a 13.273399,30.617299 0 0 1 -13.2734,30.617299 13.273399,30.617299 0 0 1 -13.2734,-30.6173 13.273399,30.617299 0 0 1 13.273399,-30.6173 13.273399,30.617299 0 0 1 13.273399,30.617299 z" />
      <path
         style="fill:none;stroke:#444444;stroke-width:4;stroke-linecap:butt;stroke-linejoin:miter;stroke-opacity:1"
         id="path10"
         d="M -26.565,-18.095 H 30.3275" />
      <path
         style="fill:none;stroke:#444444;stroke-width:4;stroke-linecap:butt;stroke-linejoin:miter;stroke-opacity:1"
         id="path12"
         d="M -26.565,4.585 H 30.3275" />
      <path
         style="fill:#ffffff;fill-opacity:1;stroke:#444444;stroke-width:4;stroke-linecap:butt;stroke-linejoin:round;stroke-opacity:1"
         id="path14"
         d="M -5.901,83.58 H 9.6705 l 8.172499,32.6382 h -31.9165 z" />
      <path
         style="fill:#ffffff;fill-opacity:1;stroke:#444444;stroke-width:4;stroke-linecap:butt;stroke-linejoin:round;stroke-opacity:1"
         id="path16"
         d="M -36.526,47.193999 H 40.292 V 103.67 h -76.818 z" />
      <path
         style="fill:#8fd3ff;fill-opacity:1;stroke:none;stroke-linecap:butt;stroke-linejoin:round"
         id="path18"
         d="m -28.35,55.384 v 40.105799 h 60.4751 v -9.555 l -0.0021,-6.3e-4 h 0.0021 v -30.5501 h -54.5734 c 1.4e-4,2.8e-4 -1.4e-4,5.6e-4 0,6.29e-4 l -5.90205,-6.3e-4 z" />
      <path
         style="fill:#ffffff;fill-opacity:1;stroke:#444444;stroke-width:4;stroke-linecap:butt;stroke-linejoin:round;stroke-opacity:1"
         id="path20"
         d="m -125.4064,12.726 h 60.3092 l 6.37763,18.059299 h -73.066 z" />
      <path
         style="fill:#ffffff;fill-opacity:1;stroke:#444444;stroke-width:4;stroke-linecap:butt;stroke-linejoin:round;stroke-opacity:1"
         id="path22"
         d="m -125.4064,-31.549 h 60.3092 v 44.2785 h -60.3092 z" />
      <path
         style="fill:#ff8ffb;fill-opacity:1;stroke:none;stroke-linecap:butt;stroke-linejoin:round"
         id="path24"
         d="M -118.9888,-25.13 V 6.314699 h 47.4768 v -7.4914 l -0.0021,-6.3e-4 h 0.0021 v -23.9519 h -42.8435 c 7e-5,2.09e-4 -7e-5,4.19e-4 0,6.29e-4 l -4.63344,-6.3e-4 z" />
      <path
         style="fill:#ffffff;fill-opacity:1;stroke:#444444;stroke-width:4;stroke-linecap:butt;stroke-linejoin:round;stroke-opacity:1"
         id="path26"
         d="m 20.16,-110.7421 v 44.1196 c 0,2.87595 -2.31532,5.191269 -5.19127,5.191269 h -26.174401 c -2.87595,0 -5.19127,-2.31532 -5.19127,-5.19127 V -110.7421 c 0,-2.87595 2.31532,-5.19127 5.191269,-5.19127 h 26.1744 c 2.87595,0 5.191269,2.31532 5.191269,5.19127 z" />
      <path
         style="fill:#ffd38f;fill-opacity:1;stroke:none;stroke-linecap:butt;stroke-linejoin:round"
         id="path28"
         d="m 14.860999,-110.7351 h -25.960901 v 36.4343 h 6.18506 l 4.9e-4,-0.0021 v 0.0021 h 19.775 v -32.8783 c -2.1e-4,7e-5 -3.5e-4,-7e-5 -4.9e-4,0 l 4.9e-4,-3.55572 z" />
      <path
         style="fill:#444444;fill-opacity:1;stroke:none;stroke-linecap:butt;stroke-linejoin:round"
         id="path30"
         d="m 5.263999,-68.306 a 3.3817,3.380789 0 0 1 -3.3817,3.380789 3.3817,3.380789 0 0 1 -3.3817,-3.38079 3.3817,3.380789 0 0 1 3.3817,-3.38072 3.3817,3.380789 0 0 1 3.3817,3.380719 z" />
      <path
         style="fill:#ffffff;fill-opacity:1;stroke:#444444;stroke-width:4;stroke-linecap:butt;stroke-linejoin:round;stroke-opacity:1"
         id="path32"
         d="m 72.73,-26.236 h 52.5679 c 3.59128,0 6.48242,2.89114 6.48242,6.482419 v 32.6837 c 0,3.59128 -2.89114,6.482419 -6.48242,6.482419 H 72.729998 c -3.59128,0 -6.48242,-2.89114 -6.48242,-6.48242 v -32.6837 c 0,-3.59128 2.89114,-6.48242 6.482419,-6.48242 z" />
      <path
         style="fill:#a3ff8f;fill-opacity:1;stroke:none;stroke-linecap:butt;stroke-linejoin:round"
         id="path34"
         d="M 72.386999,-19.621 V 12.796 H 125.6402 V 5.0729 l -0.002,-4.9e-4 h 0.002 v -24.6932 H 77.583798 c 1.4e-4,2.8e-4 -1.4e-4,4.9e-4 0,4.9e-4 l -5.19722,-4.9e-4 z" />
    </g>
  </svg>
</svg>
